<mxfile host="Electron" modified="2023-06-11T23:32:51.822Z" agent="Mozilla/5.0 (Windows NT 10.0; Win64; x64) AppleWebKit/537.36 (KHTML, like Gecko) draw.io/21.2.8 Chrome/112.0.5615.165 Electron/24.2.0 Safari/537.36" etag="wlIlc5_JniB6FWkbWdOt" version="21.2.8" type="device">
  <diagram name="PÃ¡gina-1" id="KFXwXNVXne7Kcywfaptt">
    <mxGraphModel dx="1769" dy="601" grid="1" gridSize="10" guides="1" tooltips="1" connect="1" arrows="1" fold="1" page="1" pageScale="1" pageWidth="827" pageHeight="1169" math="0" shadow="0">
      <root>
        <mxCell id="0" />
        <mxCell id="1" parent="0" />
        <mxCell id="oXafxSHvykDNF43PkNpt-5" value="&amp;lt;&amp;lt;abstract&amp;gt;&amp;gt;&lt;br&gt;TipoServicio" style="swimlane;fontStyle=1;align=center;verticalAlign=top;childLayout=stackLayout;horizontal=1;startSize=40;horizontalStack=0;resizeParent=1;resizeParentMax=0;resizeLast=0;collapsible=1;marginBottom=0;whiteSpace=wrap;html=1;" vertex="1" parent="1">
          <mxGeometry x="370" y="270" width="220" height="110" as="geometry" />
        </mxCell>
        <mxCell id="oXafxSHvykDNF43PkNpt-6" value="- precioPorHora : Real&lt;br&gt;- cantHoras: Integer" style="text;strokeColor=none;fillColor=none;align=left;verticalAlign=top;spacingLeft=4;spacingRight=4;overflow=hidden;rotatable=0;points=[[0,0.5],[1,0.5]];portConstraint=eastwest;whiteSpace=wrap;html=1;" vertex="1" parent="oXafxSHvykDNF43PkNpt-5">
          <mxGeometry y="40" width="220" height="40" as="geometry" />
        </mxCell>
        <mxCell id="oXafxSHvykDNF43PkNpt-7" value="" style="line;strokeWidth=1;fillColor=none;align=left;verticalAlign=middle;spacingTop=-1;spacingLeft=3;spacingRight=3;rotatable=0;labelPosition=right;points=[];portConstraint=eastwest;strokeColor=inherit;" vertex="1" parent="oXafxSHvykDNF43PkNpt-5">
          <mxGeometry y="80" width="220" height="8" as="geometry" />
        </mxCell>
        <mxCell id="oXafxSHvykDNF43PkNpt-8" value="+ &amp;lt;&amp;lt;abstract&amp;gt;&amp;gt; montoAbonar(): Real" style="text;strokeColor=none;fillColor=none;align=left;verticalAlign=top;spacingLeft=4;spacingRight=4;overflow=hidden;rotatable=0;points=[[0,0.5],[1,0.5]];portConstraint=eastwest;whiteSpace=wrap;html=1;" vertex="1" parent="oXafxSHvykDNF43PkNpt-5">
          <mxGeometry y="88" width="220" height="22" as="geometry" />
        </mxCell>
        <mxCell id="oXafxSHvykDNF43PkNpt-34" style="rounded=0;orthogonalLoop=1;jettySize=auto;html=1;endArrow=block;endFill=0;" edge="1" parent="1" source="oXafxSHvykDNF43PkNpt-9" target="oXafxSHvykDNF43PkNpt-5">
          <mxGeometry relative="1" as="geometry" />
        </mxCell>
        <mxCell id="oXafxSHvykDNF43PkNpt-9" value="Limpieza" style="swimlane;fontStyle=1;align=center;verticalAlign=top;childLayout=stackLayout;horizontal=1;startSize=26;horizontalStack=0;resizeParent=1;resizeParentMax=0;resizeLast=0;collapsible=1;marginBottom=0;whiteSpace=wrap;html=1;" vertex="1" parent="1">
          <mxGeometry x="150" y="460" width="250" height="130" as="geometry" />
        </mxCell>
        <mxCell id="oXafxSHvykDNF43PkNpt-10" value="- tarifa: Real" style="text;strokeColor=none;fillColor=none;align=left;verticalAlign=top;spacingLeft=4;spacingRight=4;overflow=hidden;rotatable=0;points=[[0,0.5],[1,0.5]];portConstraint=eastwest;whiteSpace=wrap;html=1;" vertex="1" parent="oXafxSHvykDNF43PkNpt-9">
          <mxGeometry y="26" width="250" height="26" as="geometry" />
        </mxCell>
        <mxCell id="oXafxSHvykDNF43PkNpt-11" value="" style="line;strokeWidth=1;fillColor=none;align=left;verticalAlign=middle;spacingTop=-1;spacingLeft=3;spacingRight=3;rotatable=0;labelPosition=right;points=[];portConstraint=eastwest;strokeColor=inherit;" vertex="1" parent="oXafxSHvykDNF43PkNpt-9">
          <mxGeometry y="52" width="250" height="8" as="geometry" />
        </mxCell>
        <mxCell id="oXafxSHvykDNF43PkNpt-12" value="+&amp;lt;&amp;lt;create&amp;gt;&amp;gt; Limpieza(precioPorHora: Real, cantHoras: Integer, tarifa: Real): Limpieza&lt;br&gt;+ montoAbonar(): Real" style="text;strokeColor=none;fillColor=none;align=left;verticalAlign=top;spacingLeft=4;spacingRight=4;overflow=hidden;rotatable=0;points=[[0,0.5],[1,0.5]];portConstraint=eastwest;whiteSpace=wrap;html=1;" vertex="1" parent="oXafxSHvykDNF43PkNpt-9">
          <mxGeometry y="60" width="250" height="70" as="geometry" />
        </mxCell>
        <mxCell id="oXafxSHvykDNF43PkNpt-33" style="rounded=0;orthogonalLoop=1;jettySize=auto;html=1;endArrow=block;endFill=0;" edge="1" parent="1" source="oXafxSHvykDNF43PkNpt-13" target="oXafxSHvykDNF43PkNpt-5">
          <mxGeometry relative="1" as="geometry" />
        </mxCell>
        <mxCell id="oXafxSHvykDNF43PkNpt-13" value="Parquizacion" style="swimlane;fontStyle=1;align=center;verticalAlign=top;childLayout=stackLayout;horizontal=1;startSize=26;horizontalStack=0;resizeParent=1;resizeParentMax=0;resizeLast=0;collapsible=1;marginBottom=0;whiteSpace=wrap;html=1;" vertex="1" parent="1">
          <mxGeometry x="520" y="460" width="270" height="140" as="geometry" />
        </mxCell>
        <mxCell id="oXafxSHvykDNF43PkNpt-14" value="- cantMaquinas: Integer&lt;br&gt;- costoMantenimiento: Real" style="text;strokeColor=none;fillColor=none;align=left;verticalAlign=top;spacingLeft=4;spacingRight=4;overflow=hidden;rotatable=0;points=[[0,0.5],[1,0.5]];portConstraint=eastwest;whiteSpace=wrap;html=1;" vertex="1" parent="oXafxSHvykDNF43PkNpt-13">
          <mxGeometry y="26" width="270" height="34" as="geometry" />
        </mxCell>
        <mxCell id="oXafxSHvykDNF43PkNpt-15" value="" style="line;strokeWidth=1;fillColor=none;align=left;verticalAlign=middle;spacingTop=-1;spacingLeft=3;spacingRight=3;rotatable=0;labelPosition=right;points=[];portConstraint=eastwest;strokeColor=inherit;" vertex="1" parent="oXafxSHvykDNF43PkNpt-13">
          <mxGeometry y="60" width="270" height="8" as="geometry" />
        </mxCell>
        <mxCell id="oXafxSHvykDNF43PkNpt-16" value="+&amp;lt;&amp;lt;create&amp;gt;&amp;gt;Parquizacion(precioPorHora: Real, cantHoras: Integer, cantMaquinas:Integer, costoMantenimiento: Real):Parquizacion&lt;br&gt;+montoAbonar():Real" style="text;strokeColor=none;fillColor=none;align=left;verticalAlign=top;spacingLeft=4;spacingRight=4;overflow=hidden;rotatable=0;points=[[0,0.5],[1,0.5]];portConstraint=eastwest;whiteSpace=wrap;html=1;" vertex="1" parent="oXafxSHvykDNF43PkNpt-13">
          <mxGeometry y="68" width="270" height="72" as="geometry" />
        </mxCell>
        <mxCell id="oXafxSHvykDNF43PkNpt-35" style="edgeStyle=orthogonalEdgeStyle;rounded=0;orthogonalLoop=1;jettySize=auto;html=1;" edge="1" parent="1" source="oXafxSHvykDNF43PkNpt-17" target="oXafxSHvykDNF43PkNpt-5">
          <mxGeometry relative="1" as="geometry" />
        </mxCell>
        <mxCell id="oXafxSHvykDNF43PkNpt-17" value="UnicaVez" style="swimlane;fontStyle=1;align=center;verticalAlign=top;childLayout=stackLayout;horizontal=1;startSize=26;horizontalStack=0;resizeParent=1;resizeParentMax=0;resizeLast=0;collapsible=1;marginBottom=0;whiteSpace=wrap;html=1;" vertex="1" parent="1">
          <mxGeometry x="-30" y="270" width="190" height="110" as="geometry" />
        </mxCell>
        <mxCell id="oXafxSHvykDNF43PkNpt-18" value="- fecha: Date" style="text;strokeColor=none;fillColor=none;align=left;verticalAlign=top;spacingLeft=4;spacingRight=4;overflow=hidden;rotatable=0;points=[[0,0.5],[1,0.5]];portConstraint=eastwest;whiteSpace=wrap;html=1;" vertex="1" parent="oXafxSHvykDNF43PkNpt-17">
          <mxGeometry y="26" width="190" height="24" as="geometry" />
        </mxCell>
        <mxCell id="oXafxSHvykDNF43PkNpt-19" value="" style="line;strokeWidth=1;fillColor=none;align=left;verticalAlign=middle;spacingTop=-1;spacingLeft=3;spacingRight=3;rotatable=0;labelPosition=right;points=[];portConstraint=eastwest;strokeColor=inherit;" vertex="1" parent="oXafxSHvykDNF43PkNpt-17">
          <mxGeometry y="50" width="190" height="8" as="geometry" />
        </mxCell>
        <mxCell id="oXafxSHvykDNF43PkNpt-20" value="+&amp;lt;&amp;lt;create&amp;gt;&amp;gt; UnicaVez(fecha:Date): UnicaVez&lt;br&gt;+ obtenerMonto():Real" style="text;strokeColor=none;fillColor=none;align=left;verticalAlign=top;spacingLeft=4;spacingRight=4;overflow=hidden;rotatable=0;points=[[0,0.5],[1,0.5]];portConstraint=eastwest;whiteSpace=wrap;html=1;" vertex="1" parent="oXafxSHvykDNF43PkNpt-17">
          <mxGeometry y="58" width="190" height="52" as="geometry" />
        </mxCell>
        <mxCell id="oXafxSHvykDNF43PkNpt-41" style="rounded=0;orthogonalLoop=1;jettySize=auto;html=1;endArrow=block;endFill=0;dashed=1;" edge="1" parent="1" source="oXafxSHvykDNF43PkNpt-21" target="oXafxSHvykDNF43PkNpt-37">
          <mxGeometry relative="1" as="geometry" />
        </mxCell>
        <mxCell id="oXafxSHvykDNF43PkNpt-21" value="Prolongado" style="swimlane;fontStyle=1;align=center;verticalAlign=top;childLayout=stackLayout;horizontal=1;startSize=26;horizontalStack=0;resizeParent=1;resizeParentMax=0;resizeLast=0;collapsible=1;marginBottom=0;whiteSpace=wrap;html=1;" vertex="1" parent="1">
          <mxGeometry x="-40" y="100" width="240" height="120" as="geometry" />
        </mxCell>
        <mxCell id="oXafxSHvykDNF43PkNpt-22" value="- fecha: Date&lt;br&gt;- cantDias: Integer" style="text;strokeColor=none;fillColor=none;align=left;verticalAlign=top;spacingLeft=4;spacingRight=4;overflow=hidden;rotatable=0;points=[[0,0.5],[1,0.5]];portConstraint=eastwest;whiteSpace=wrap;html=1;" vertex="1" parent="oXafxSHvykDNF43PkNpt-21">
          <mxGeometry y="26" width="240" height="34" as="geometry" />
        </mxCell>
        <mxCell id="oXafxSHvykDNF43PkNpt-23" value="" style="line;strokeWidth=1;fillColor=none;align=left;verticalAlign=middle;spacingTop=-1;spacingLeft=3;spacingRight=3;rotatable=0;labelPosition=right;points=[];portConstraint=eastwest;strokeColor=inherit;" vertex="1" parent="oXafxSHvykDNF43PkNpt-21">
          <mxGeometry y="60" width="240" height="8" as="geometry" />
        </mxCell>
        <mxCell id="oXafxSHvykDNF43PkNpt-24" value="+&amp;lt;&amp;lt;create&amp;gt;&amp;gt; Prolongado(fecha:Date, cantDias:Integer):Prolongado&lt;br&gt;+ obtenerMonto():Real" style="text;strokeColor=none;fillColor=none;align=left;verticalAlign=top;spacingLeft=4;spacingRight=4;overflow=hidden;rotatable=0;points=[[0,0.5],[1,0.5]];portConstraint=eastwest;whiteSpace=wrap;html=1;" vertex="1" parent="oXafxSHvykDNF43PkNpt-21">
          <mxGeometry y="68" width="240" height="52" as="geometry" />
        </mxCell>
        <mxCell id="oXafxSHvykDNF43PkNpt-45" style="edgeStyle=orthogonalEdgeStyle;rounded=0;orthogonalLoop=1;jettySize=auto;html=1;" edge="1" parent="1" source="oXafxSHvykDNF43PkNpt-29" target="oXafxSHvykDNF43PkNpt-1">
          <mxGeometry relative="1" as="geometry" />
        </mxCell>
        <mxCell id="oXafxSHvykDNF43PkNpt-29" value="Sistema" style="swimlane;fontStyle=1;align=center;verticalAlign=top;childLayout=stackLayout;horizontal=1;startSize=26;horizontalStack=0;resizeParent=1;resizeParentMax=0;resizeLast=0;collapsible=1;marginBottom=0;whiteSpace=wrap;html=1;" vertex="1" parent="1">
          <mxGeometry x="-320" y="650" width="240" height="70" as="geometry" />
        </mxCell>
        <mxCell id="oXafxSHvykDNF43PkNpt-31" value="" style="line;strokeWidth=1;fillColor=none;align=left;verticalAlign=middle;spacingTop=-1;spacingLeft=3;spacingRight=3;rotatable=0;labelPosition=right;points=[];portConstraint=eastwest;strokeColor=inherit;" vertex="1" parent="oXafxSHvykDNF43PkNpt-29">
          <mxGeometry y="26" width="240" height="8" as="geometry" />
        </mxCell>
        <mxCell id="oXafxSHvykDNF43PkNpt-32" value="+&amp;lt;&amp;lt;create&amp;gt;&amp;gt; Sistema():Sistema&lt;br&gt;+ agregarCliente(cliente: Cliente):Cliente" style="text;strokeColor=none;fillColor=none;align=left;verticalAlign=top;spacingLeft=4;spacingRight=4;overflow=hidden;rotatable=0;points=[[0,0.5],[1,0.5]];portConstraint=eastwest;whiteSpace=wrap;html=1;" vertex="1" parent="oXafxSHvykDNF43PkNpt-29">
          <mxGeometry y="34" width="240" height="36" as="geometry" />
        </mxCell>
        <mxCell id="oXafxSHvykDNF43PkNpt-36" style="edgeStyle=orthogonalEdgeStyle;rounded=0;orthogonalLoop=1;jettySize=auto;html=1;" edge="1" parent="1" source="oXafxSHvykDNF43PkNpt-22" target="oXafxSHvykDNF43PkNpt-5">
          <mxGeometry relative="1" as="geometry" />
        </mxCell>
        <mxCell id="oXafxSHvykDNF43PkNpt-37" value="&amp;lt;&amp;lt;interface&amp;gt;&amp;gt;&lt;br&gt;Servicio" style="swimlane;fontStyle=1;align=center;verticalAlign=top;childLayout=stackLayout;horizontal=1;startSize=36;horizontalStack=0;resizeParent=1;resizeParentMax=0;resizeLast=0;collapsible=1;marginBottom=0;whiteSpace=wrap;html=1;" vertex="1" parent="1">
          <mxGeometry x="-280" y="200" width="160" height="62" as="geometry" />
        </mxCell>
        <mxCell id="oXafxSHvykDNF43PkNpt-40" value="+ obtenerMonto():Real" style="text;strokeColor=none;fillColor=none;align=left;verticalAlign=top;spacingLeft=4;spacingRight=4;overflow=hidden;rotatable=0;points=[[0,0.5],[1,0.5]];portConstraint=eastwest;whiteSpace=wrap;html=1;" vertex="1" parent="oXafxSHvykDNF43PkNpt-37">
          <mxGeometry y="36" width="160" height="26" as="geometry" />
        </mxCell>
        <mxCell id="oXafxSHvykDNF43PkNpt-42" style="rounded=0;orthogonalLoop=1;jettySize=auto;html=1;dashed=1;endArrow=block;endFill=0;exitX=-0.018;exitY=0.055;exitDx=0;exitDy=0;exitPerimeter=0;" edge="1" parent="1" source="oXafxSHvykDNF43PkNpt-18" target="oXafxSHvykDNF43PkNpt-37">
          <mxGeometry relative="1" as="geometry" />
        </mxCell>
        <mxCell id="oXafxSHvykDNF43PkNpt-43" style="edgeStyle=orthogonalEdgeStyle;rounded=0;orthogonalLoop=1;jettySize=auto;html=1;" edge="1" parent="1" source="oXafxSHvykDNF43PkNpt-1" target="oXafxSHvykDNF43PkNpt-37">
          <mxGeometry relative="1" as="geometry" />
        </mxCell>
        <mxCell id="oXafxSHvykDNF43PkNpt-1" value="Cliente" style="swimlane;fontStyle=1;align=center;verticalAlign=top;childLayout=stackLayout;horizontal=1;startSize=26;horizontalStack=0;resizeParent=1;resizeParentMax=0;resizeLast=0;collapsible=1;marginBottom=0;whiteSpace=wrap;html=1;" vertex="1" parent="1">
          <mxGeometry x="-315" y="420" width="230" height="130" as="geometry" />
        </mxCell>
        <mxCell id="oXafxSHvykDNF43PkNpt-2" value="- nombre: String&lt;br&gt;- direccion : String" style="text;strokeColor=none;fillColor=none;align=left;verticalAlign=top;spacingLeft=4;spacingRight=4;overflow=hidden;rotatable=0;points=[[0,0.5],[1,0.5]];portConstraint=eastwest;whiteSpace=wrap;html=1;" vertex="1" parent="oXafxSHvykDNF43PkNpt-1">
          <mxGeometry y="26" width="230" height="34" as="geometry" />
        </mxCell>
        <mxCell id="oXafxSHvykDNF43PkNpt-3" value="" style="line;strokeWidth=1;fillColor=none;align=left;verticalAlign=middle;spacingTop=-1;spacingLeft=3;spacingRight=3;rotatable=0;labelPosition=right;points=[];portConstraint=eastwest;strokeColor=inherit;" vertex="1" parent="oXafxSHvykDNF43PkNpt-1">
          <mxGeometry y="60" width="230" height="8" as="geometry" />
        </mxCell>
        <mxCell id="oXafxSHvykDNF43PkNpt-4" value="+ agregarServicio():Prolongado&lt;br&gt;+ agregarUnicaVez():UnicaVez&lt;br&gt;+calcularMontoServicios():Real" style="text;strokeColor=none;fillColor=none;align=left;verticalAlign=top;spacingLeft=4;spacingRight=4;overflow=hidden;rotatable=0;points=[[0,0.5],[1,0.5]];portConstraint=eastwest;whiteSpace=wrap;html=1;" vertex="1" parent="oXafxSHvykDNF43PkNpt-1">
          <mxGeometry y="68" width="230" height="62" as="geometry" />
        </mxCell>
        <mxCell id="oXafxSHvykDNF43PkNpt-44" value="0..*&lt;br&gt;-servicios" style="text;html=1;align=center;verticalAlign=middle;resizable=0;points=[];autosize=1;strokeColor=none;fillColor=none;" vertex="1" parent="1">
          <mxGeometry x="-270" y="330" width="70" height="40" as="geometry" />
        </mxCell>
        <mxCell id="oXafxSHvykDNF43PkNpt-46" value="0..*&lt;br&gt;-clientes" style="text;html=1;align=center;verticalAlign=middle;resizable=0;points=[];autosize=1;strokeColor=none;fillColor=none;" vertex="1" parent="1">
          <mxGeometry x="-200" y="590" width="70" height="40" as="geometry" />
        </mxCell>
        <mxCell id="oXafxSHvykDNF43PkNpt-47" value="1&lt;br&gt;- servicio" style="text;html=1;align=center;verticalAlign=middle;resizable=0;points=[];autosize=1;strokeColor=none;fillColor=none;" vertex="1" parent="1">
          <mxGeometry x="190" y="106" width="70" height="40" as="geometry" />
        </mxCell>
        <mxCell id="oXafxSHvykDNF43PkNpt-48" value="1&lt;br&gt;-servicio" style="text;html=1;align=center;verticalAlign=middle;resizable=0;points=[];autosize=1;strokeColor=none;fillColor=none;" vertex="1" parent="1">
          <mxGeometry x="205" y="293" width="70" height="40" as="geometry" />
        </mxCell>
      </root>
    </mxGraphModel>
  </diagram>
</mxfile>
